<?xml version="1.0" encoding="UTF-8"?>
<!--Generator: Apple Native CoreSVG 341-->
<!DOCTYPE svg
PUBLIC "-//W3C//DTD SVG 1.1//EN"
       "http://www.w3.org/Graphics/SVG/1.1/DTD/svg11.dtd">
<svg version="1.1" xmlns="http://www.w3.org/2000/svg" xmlns:xlink="http://www.w3.org/1999/xlink" viewBox="0 0 199.219 238.405">
 <g>
  <path d="M83.3984 6.94677L83.3984 51.771C83.3984 58.6069 88.1836 60.4624 93.457 56.7515L124.609 34.8765C129.102 31.7515 129.199 27.064 124.609 23.8413L93.5547 1.9663C88.1836-1.84229 83.3984-0.0844799 83.3984 6.94677ZM16.6016 119.154C16.6016 73.2554 53.7109 36.146 99.6094 36.146C104.102 36.146 107.91 32.3374 107.91 27.7476C107.91 23.2554 104.199 19.6421 99.707 19.5444C44.5312 19.6421 0 64.1733 0 119.154C0 148.451 12.6953 175.013 33.1055 193.275C37.5 197.279 43.2617 195.912 45.8984 192.201C48.1445 189.076 48.3398 184.779 44.043 180.775C27.0508 165.541 16.6016 143.47 16.6016 119.154ZM115.82 231.263L115.82 186.537C115.82 179.603 111.035 177.845 105.762 181.556L74.6094 203.431C70.1172 206.556 70.0195 211.244 74.6094 214.466L105.664 236.244C111.035 240.15 115.82 238.294 115.82 231.263ZM182.617 119.154C182.617 165.052 145.508 202.162 99.6094 202.162C95.1172 202.162 91.4062 205.873 91.4062 210.462C91.4062 214.955 95.0195 218.666 99.5117 218.763C154.688 218.666 199.219 174.134 199.219 119.154C199.219 89.8569 186.523 63.2944 166.113 45.0327C161.719 41.0288 155.957 42.396 153.32 46.0093C151.074 49.2319 150.879 53.4311 155.273 57.4351C172.168 72.7671 182.617 94.7397 182.617 119.154Z" fill="black" fill-opacity="0.85"/>
 </g>
</svg>
