<?xml version="1.0" encoding="UTF-8"?>
<!--Generator: Apple Native CoreSVG 341-->
<!DOCTYPE svg
PUBLIC "-//W3C//DTD SVG 1.1//EN"
       "http://www.w3.org/Graphics/SVG/1.1/DTD/svg11.dtd">
<svg version="1.1" xmlns="http://www.w3.org/2000/svg" xmlns:xlink="http://www.w3.org/1999/xlink" viewBox="0 0 164.258 209.473">
 <g>
  <path d="M75.0977 71.6797C75.0977 84.1797 81.0547 90.1367 93.5547 90.1367L164.258 90.1367L164.258 178.809C164.258 199.121 154.199 209.375 133.984 209.375L30.2734 209.375C10.0586 209.375 0 199.219 0 178.809L0 30.6641C0 10.3516 10.1562 0 30.2734 0L75.0977 0ZM43.8477 156.836C40.0391 156.836 37.207 159.668 37.207 163.281C37.207 166.895 40.0391 169.629 43.8477 169.629L120.703 169.629C124.414 169.629 127.246 166.895 127.246 163.281C127.246 159.668 124.414 156.836 120.703 156.836ZM43.8477 119.824C40.0391 119.824 37.207 122.656 37.207 126.27C37.207 129.883 40.0391 132.617 43.8477 132.617L120.703 132.617C124.414 132.617 127.246 129.883 127.246 126.27C127.246 122.656 124.414 119.824 120.703 119.824ZM101.172 9.27734L154.98 64.0625C159.668 68.8477 162.5 72.7539 163.086 76.7578L93.8477 76.7578C90.2344 76.7578 88.4766 75 88.4766 71.4844L88.4766 1.07422C92.5781 1.75781 96.582 4.58984 101.172 9.27734Z" fill="black" fill-opacity="0.85"/>
 </g>
</svg>
